<svg xmlns="http://www.w3.org/2000/svg" xmlns:xlink="http://www.w3.org/1999/xlink" width="500" zoomAndPan="magnify" viewBox="0 0 375 374.999991" height="500" preserveAspectRatio="xMidYMid meet" version="1.0"><defs><g/><clipPath id="53077089ba"><path d="M 169 125 L 184.992188 125 L 184.992188 141 L 169 141 Z M 169 125 " clip-rule="nonzero"/></clipPath><clipPath id="fe099f17a1"><path d="M 157 111.730469 L 167 111.730469 L 167 121 L 157 121 Z M 157 111.730469 " clip-rule="nonzero"/></clipPath></defs><path fill="#0071a8" d="M 120.476562 137.03125 C 135.144531 130.925781 150.175781 129.921875 162.183594 133.25 C 148.53125 127.203125 129.542969 127.363281 111.097656 135.039062 C 81.84375 147.21875 65.046875 173.65625 73.578125 194.097656 C 79.867188 209.164062 98.164062 216.753906 119.070312 214.828125 C 93.542969 208.824219 87.800781 197.59375 85.503906 192.070312 C 77.546875 173.019531 93.207031 148.371094 120.476562 137.03125 Z M 120.476562 137.03125 " fill-opacity="1" fill-rule="nonzero"/><path fill="#62c7e3" d="M 182.105469 151.871094 C 180.496094 148.019531 177.910156 144.769531 174.597656 142.175781 C 163.695312 133.625 144.878906 132.1875 126.699219 139.75 C 113.351562 145.304688 103.199219 154.53125 98.121094 164.492188 C 104.175781 156.789062 113.082031 149.972656 123.976562 145.441406 C 146.800781 135.945312 170.570312 139.640625 180.625 153.308594 C 181.792969 154.898438 182.792969 156.621094 183.566406 158.476562 C 183.660156 158.695312 183.730469 158.921875 183.816406 159.140625 C 183.636719 156.648438 183.085938 154.214844 182.105469 151.871094 Z M 182.105469 151.871094 " fill-opacity="1" fill-rule="nonzero"/><g clip-path="url(#53077089ba)"><path fill="#14bbe2" d="M 184.914062 133.214844 C 179.300781 134.246094 178.460938 135.082031 177.425781 140.691406 C 176.390625 135.082031 175.554688 134.246094 169.941406 133.214844 C 175.554688 132.179688 176.390625 131.34375 177.425781 125.738281 C 178.460938 131.351562 179.300781 132.1875 184.914062 133.214844 Z M 184.914062 133.214844 " fill-opacity="1" fill-rule="nonzero"/></g><g clip-path="url(#fe099f17a1)"><path fill="#62c7e3" d="M 166.246094 115.972656 C 163.453125 116.773438 162.800781 117.425781 162 120.214844 C 161.199219 117.425781 160.546875 116.773438 157.753906 115.972656 C 160.546875 115.171875 161.199219 114.519531 162 111.730469 C 162.800781 114.519531 163.453125 115.171875 166.246094 115.972656 Z M 166.246094 115.972656 " fill-opacity="1" fill-rule="nonzero"/></g><path fill="#0071a8" d="M 177.425781 118.8125 C 176.03125 119.214844 175.703125 119.542969 175.300781 120.9375 C 174.894531 119.542969 174.570312 119.214844 173.171875 118.8125 C 174.570312 118.410156 174.894531 118.082031 175.300781 116.6875 C 175.703125 118.082031 176.03125 118.410156 177.425781 118.8125 Z M 177.425781 118.8125 " fill-opacity="1" fill-rule="nonzero"/><g fill="#0071a8" fill-opacity="1"><g transform="translate(168.142919, 194.624987)"><g><path d="M 6.3125 -13.03125 L 6.3125 0 L 1.53125 0 L 1.53125 -21 L 6.3125 -21 L 14.65625 -7.96875 L 14.71875 -7.96875 L 14.71875 -21 L 19.5 -21 L 19.5 0 L 14.71875 0 L 6.359375 -13.03125 Z M 6.3125 -13.03125 "/></g></g></g><g fill="#0071a8" fill-opacity="1"><g transform="translate(189.157566, 194.624987)"><g><path d="M 6.3125 -21 L 6.3125 0 L 1.53125 0 L 1.53125 -21 Z M 6.3125 -21 "/></g></g></g><g fill="#0071a8" fill-opacity="1"><g transform="translate(196.993541, 194.624987)"><g><path d="M 12.703125 -4.328125 C 13.429688 -4.328125 14.140625 -4.4375 14.828125 -4.65625 C 15.515625 -4.875 16.019531 -5.085938 16.34375 -5.296875 L 16.828125 -5.625 L 18.859375 -1.546875 C 18.796875 -1.492188 18.703125 -1.425781 18.578125 -1.34375 C 18.460938 -1.257812 18.1875 -1.101562 17.75 -0.875 C 17.320312 -0.644531 16.859375 -0.445312 16.359375 -0.28125 C 15.867188 -0.113281 15.222656 0.0351562 14.421875 0.171875 C 13.628906 0.304688 12.8125 0.375 11.96875 0.375 C 10.007812 0.375 8.15625 -0.101562 6.40625 -1.0625 C 4.664062 -2.019531 3.257812 -3.335938 2.1875 -5.015625 C 1.113281 -6.691406 0.578125 -8.507812 0.578125 -10.46875 C 0.578125 -11.9375 0.890625 -13.347656 1.515625 -14.703125 C 2.148438 -16.066406 2.988281 -17.234375 4.03125 -18.203125 C 5.070312 -19.171875 6.289062 -19.941406 7.6875 -20.515625 C 9.082031 -21.085938 10.507812 -21.375 11.96875 -21.375 C 13.320312 -21.375 14.570312 -21.210938 15.71875 -20.890625 C 16.863281 -20.566406 17.671875 -20.25 18.140625 -19.9375 L 18.859375 -19.453125 L 16.828125 -15.375 C 16.703125 -15.476562 16.519531 -15.597656 16.28125 -15.734375 C 16.050781 -15.878906 15.578125 -16.070312 14.859375 -16.3125 C 14.148438 -16.550781 13.429688 -16.671875 12.703125 -16.671875 C 11.546875 -16.671875 10.507812 -16.484375 9.59375 -16.109375 C 8.675781 -15.734375 7.953125 -15.238281 7.421875 -14.625 C 6.890625 -14.019531 6.484375 -13.363281 6.203125 -12.65625 C 5.921875 -11.957031 5.78125 -11.242188 5.78125 -10.515625 C 5.78125 -8.921875 6.375 -7.488281 7.5625 -6.21875 C 8.757812 -4.957031 10.472656 -4.328125 12.703125 -4.328125 Z M 12.703125 -4.328125 "/></g></g></g><g fill="#0071a8" fill-opacity="1"><g transform="translate(216.150961, 194.624987)"><g><path d="M 6.3125 -21 L 6.3125 -4.203125 L 13.546875 -4.203125 L 13.546875 0 L 1.53125 0 L 1.53125 -21 Z M 6.3125 -21 "/></g></g></g><g fill="#5b5b5b" fill-opacity="1"><g transform="translate(157.622514, 214.307081)"><g><path d="M 1.671875 -2.8125 L 1.671875 0 L 0.78125 0 L 0.78125 -7.171875 L 3.0625 -7.171875 C 3.726562 -7.171875 4.25 -6.972656 4.625 -6.578125 C 5.007812 -6.179688 5.203125 -5.648438 5.203125 -4.984375 C 5.203125 -4.296875 5.019531 -3.765625 4.65625 -3.390625 C 4.289062 -3.015625 3.78125 -2.820312 3.125 -2.8125 Z M 1.671875 -3.578125 L 3.0625 -3.578125 C 3.457031 -3.578125 3.757812 -3.695312 3.96875 -3.9375 C 4.1875 -4.175781 4.296875 -4.519531 4.296875 -4.96875 C 4.296875 -5.40625 4.1875 -5.75 3.96875 -6 C 3.75 -6.257812 3.445312 -6.390625 3.0625 -6.390625 L 1.671875 -6.390625 Z M 1.671875 -3.578125 "/></g></g></g><g fill="#5b5b5b" fill-opacity="1"><g transform="translate(165.455626, 214.307081)"><g><path d="M 2.9375 -2.90625 L 1.6875 -2.90625 L 1.6875 0 L 0.78125 0 L 0.78125 -7.171875 L 2.78125 -7.171875 C 3.488281 -7.171875 4.019531 -6.988281 4.375 -6.625 C 4.738281 -6.257812 4.921875 -5.722656 4.921875 -5.015625 C 4.921875 -4.578125 4.820312 -4.191406 4.625 -3.859375 C 4.4375 -3.523438 4.160156 -3.273438 3.796875 -3.109375 L 5.1875 -0.0625 L 5.1875 0 L 4.21875 0 Z M 1.6875 -3.671875 L 2.78125 -3.671875 C 3.15625 -3.671875 3.453125 -3.789062 3.671875 -4.03125 C 3.898438 -4.28125 4.015625 -4.609375 4.015625 -5.015625 C 4.015625 -5.929688 3.597656 -6.390625 2.765625 -6.390625 L 1.6875 -6.390625 Z M 1.6875 -3.671875 "/></g></g></g><g fill="#5b5b5b" fill-opacity="1"><g transform="translate(173.052257, 214.307081)"><g><path d="M 5.4375 -2.953125 C 5.4375 -1.972656 5.226562 -1.21875 4.8125 -0.6875 C 4.394531 -0.164062 3.800781 0.09375 3.03125 0.09375 C 2.289062 0.09375 1.707031 -0.160156 1.28125 -0.671875 C 0.851562 -1.179688 0.628906 -1.910156 0.609375 -2.859375 L 0.609375 -4.203125 C 0.609375 -5.160156 0.820312 -5.910156 1.25 -6.453125 C 1.675781 -7.003906 2.269531 -7.28125 3.03125 -7.28125 C 3.78125 -7.28125 4.363281 -7.019531 4.78125 -6.5 C 5.207031 -5.976562 5.425781 -5.234375 5.4375 -4.265625 Z M 4.546875 -4.21875 C 4.546875 -4.976562 4.421875 -5.539062 4.171875 -5.90625 C 3.921875 -6.28125 3.539062 -6.46875 3.03125 -6.46875 C 2.53125 -6.46875 2.148438 -6.28125 1.890625 -5.90625 C 1.640625 -5.53125 1.515625 -4.976562 1.515625 -4.25 L 1.515625 -2.953125 C 1.515625 -2.222656 1.640625 -1.664062 1.890625 -1.28125 C 2.148438 -0.894531 2.53125 -0.703125 3.03125 -0.703125 C 3.539062 -0.703125 3.914062 -0.878906 4.15625 -1.234375 C 4.40625 -1.585938 4.535156 -2.132812 4.546875 -2.875 Z M 4.546875 -4.21875 "/></g></g></g><g fill="#5b5b5b" fill-opacity="1"><g transform="translate(181.353399, 214.307081)"><g><path d="M 1.671875 -2.8125 L 1.671875 0 L 0.78125 0 L 0.78125 -7.171875 L 3.0625 -7.171875 C 3.726562 -7.171875 4.25 -6.972656 4.625 -6.578125 C 5.007812 -6.179688 5.203125 -5.648438 5.203125 -4.984375 C 5.203125 -4.296875 5.019531 -3.765625 4.65625 -3.390625 C 4.289062 -3.015625 3.78125 -2.820312 3.125 -2.8125 Z M 1.671875 -3.578125 L 3.0625 -3.578125 C 3.457031 -3.578125 3.757812 -3.695312 3.96875 -3.9375 C 4.1875 -4.175781 4.296875 -4.519531 4.296875 -4.96875 C 4.296875 -5.40625 4.1875 -5.75 3.96875 -6 C 3.75 -6.257812 3.445312 -6.390625 3.0625 -6.390625 L 1.671875 -6.390625 Z M 1.671875 -3.578125 "/></g></g></g><g fill="#5b5b5b" fill-opacity="1"><g transform="translate(189.18651, 214.307081)"><g><path d="M 4.21875 -3.3125 L 1.671875 -3.3125 L 1.671875 -0.78125 L 4.640625 -0.78125 L 4.640625 0 L 0.78125 0 L 0.78125 -7.171875 L 4.578125 -7.171875 L 4.578125 -6.390625 L 1.671875 -6.390625 L 1.671875 -4.09375 L 4.21875 -4.09375 Z M 4.21875 -3.3125 "/></g></g></g><g fill="#5b5b5b" fill-opacity="1"><g transform="translate(196.438273, 214.307081)"><g><path d="M 2.9375 -2.90625 L 1.6875 -2.90625 L 1.6875 0 L 0.78125 0 L 0.78125 -7.171875 L 2.78125 -7.171875 C 3.488281 -7.171875 4.019531 -6.988281 4.375 -6.625 C 4.738281 -6.257812 4.921875 -5.722656 4.921875 -5.015625 C 4.921875 -4.578125 4.820312 -4.191406 4.625 -3.859375 C 4.4375 -3.523438 4.160156 -3.273438 3.796875 -3.109375 L 5.1875 -0.0625 L 5.1875 0 L 4.21875 0 Z M 1.6875 -3.671875 L 2.78125 -3.671875 C 3.15625 -3.671875 3.453125 -3.789062 3.671875 -4.03125 C 3.898438 -4.28125 4.015625 -4.609375 4.015625 -5.015625 C 4.015625 -5.929688 3.597656 -6.390625 2.765625 -6.390625 L 1.6875 -6.390625 Z M 1.6875 -3.671875 "/></g></g></g><g fill="#5b5b5b" fill-opacity="1"><g transform="translate(204.034903, 214.307081)"><g><path d="M 4.96875 -6.390625 L 3.078125 -6.390625 L 3.078125 0 L 2.171875 0 L 2.171875 -6.390625 L 0.296875 -6.390625 L 0.296875 -7.171875 L 4.96875 -7.171875 Z M 4.96875 -6.390625 "/></g></g></g><g fill="#5b5b5b" fill-opacity="1"><g transform="translate(211.528068, 214.307081)"><g><path d="M 1.71875 0 L 0.8125 0 L 0.8125 -7.171875 L 1.71875 -7.171875 Z M 1.71875 0 "/></g></g></g><g fill="#5b5b5b" fill-opacity="1"><g transform="translate(216.291854, 214.307081)"><g><path d="M 4.21875 -3.3125 L 1.671875 -3.3125 L 1.671875 -0.78125 L 4.640625 -0.78125 L 4.640625 0 L 0.78125 0 L 0.78125 -7.171875 L 4.578125 -7.171875 L 4.578125 -6.390625 L 1.671875 -6.390625 L 1.671875 -4.09375 L 4.21875 -4.09375 Z M 4.21875 -3.3125 "/></g></g></g><g fill="#5b5b5b" fill-opacity="1"><g transform="translate(223.54362, 214.307081)"><g><path d="M 3.90625 -1.8125 C 3.90625 -2.164062 3.804688 -2.4375 3.609375 -2.625 C 3.421875 -2.820312 3.070312 -3.007812 2.5625 -3.1875 C 2.0625 -3.375 1.675781 -3.566406 1.40625 -3.765625 C 1.132812 -3.960938 0.929688 -4.1875 0.796875 -4.4375 C 0.671875 -4.695312 0.609375 -4.988281 0.609375 -5.3125 C 0.609375 -5.882812 0.796875 -6.351562 1.171875 -6.71875 C 1.554688 -7.09375 2.054688 -7.28125 2.671875 -7.28125 C 3.085938 -7.28125 3.457031 -7.179688 3.78125 -6.984375 C 4.113281 -6.796875 4.367188 -6.535156 4.546875 -6.203125 C 4.722656 -5.867188 4.8125 -5.5 4.8125 -5.09375 L 3.90625 -5.09375 C 3.90625 -5.539062 3.796875 -5.882812 3.578125 -6.125 C 3.367188 -6.375 3.066406 -6.5 2.671875 -6.5 C 2.304688 -6.5 2.019531 -6.394531 1.8125 -6.1875 C 1.613281 -5.988281 1.515625 -5.703125 1.515625 -5.328125 C 1.515625 -5.023438 1.625 -4.769531 1.84375 -4.5625 C 2.0625 -4.363281 2.394531 -4.1875 2.84375 -4.03125 C 3.550781 -3.789062 4.054688 -3.5 4.359375 -3.15625 C 4.660156 -2.820312 4.8125 -2.378906 4.8125 -1.828125 C 4.8125 -1.242188 4.625 -0.773438 4.25 -0.421875 C 3.875 -0.078125 3.359375 0.09375 2.703125 0.09375 C 2.285156 0.09375 1.898438 0.00390625 1.546875 -0.171875 C 1.203125 -0.359375 0.925781 -0.613281 0.71875 -0.9375 C 0.519531 -1.269531 0.421875 -1.648438 0.421875 -2.078125 L 1.328125 -2.078125 C 1.328125 -1.640625 1.445312 -1.296875 1.6875 -1.046875 C 1.9375 -0.796875 2.273438 -0.671875 2.703125 -0.671875 C 3.109375 -0.671875 3.410156 -0.769531 3.609375 -0.96875 C 3.804688 -1.175781 3.90625 -1.457031 3.90625 -1.8125 Z M 3.90625 -1.8125 "/></g></g></g><g fill="#5b5b5b" fill-opacity="1"><g transform="translate(231.012159, 214.307081)"><g/></g></g><g fill="#5b5b5b" fill-opacity="1"><g transform="translate(235.564104, 214.307081)"><g><path d="M 0.5 -1.921875 C 0.5 -2.265625 0.582031 -2.578125 0.75 -2.859375 C 0.914062 -3.148438 1.226562 -3.488281 1.6875 -3.875 C 1.414062 -4.25 1.226562 -4.554688 1.125 -4.796875 C 1.03125 -5.046875 0.984375 -5.289062 0.984375 -5.53125 C 0.984375 -6.082031 1.125 -6.507812 1.40625 -6.8125 C 1.6875 -7.125 2.0625 -7.28125 2.53125 -7.28125 C 2.96875 -7.28125 3.320312 -7.132812 3.59375 -6.84375 C 3.875 -6.550781 4.015625 -6.1875 4.015625 -5.75 C 4.015625 -5.46875 3.957031 -5.207031 3.84375 -4.96875 C 3.738281 -4.726562 3.546875 -4.488281 3.265625 -4.25 L 2.75 -3.8125 L 4.015625 -1.984375 C 4.171875 -2.378906 4.25 -2.820312 4.25 -3.3125 L 5.03125 -3.3125 C 5.03125 -2.476562 4.863281 -1.796875 4.53125 -1.265625 L 5.40625 0 L 4.359375 0 L 3.984375 -0.53125 C 3.804688 -0.332031 3.582031 -0.175781 3.3125 -0.0625 C 3.039062 0.0390625 2.765625 0.09375 2.484375 0.09375 C 1.878906 0.09375 1.394531 -0.09375 1.03125 -0.46875 C 0.675781 -0.84375 0.5 -1.328125 0.5 -1.921875 Z M 2.484375 -0.640625 C 2.867188 -0.640625 3.222656 -0.820312 3.546875 -1.1875 L 2.125 -3.265625 L 1.96875 -3.140625 C 1.570312 -2.765625 1.375 -2.359375 1.375 -1.921875 C 1.375 -1.546875 1.472656 -1.238281 1.671875 -1 C 1.867188 -0.757812 2.140625 -0.640625 2.484375 -0.640625 Z M 1.84375 -5.5625 C 1.84375 -5.382812 1.882812 -5.203125 1.96875 -5.015625 C 2.0625 -4.828125 2.179688 -4.628906 2.328125 -4.421875 L 2.703125 -4.734375 C 2.898438 -4.898438 3.035156 -5.054688 3.109375 -5.203125 C 3.179688 -5.359375 3.21875 -5.539062 3.21875 -5.75 C 3.21875 -5.96875 3.148438 -6.148438 3.015625 -6.296875 C 2.890625 -6.453125 2.726562 -6.53125 2.53125 -6.53125 C 2.3125 -6.53125 2.140625 -6.4375 2.015625 -6.25 C 1.898438 -6.0625 1.84375 -5.832031 1.84375 -5.5625 Z M 1.84375 -5.5625 "/></g></g></g><g fill="#5b5b5b" fill-opacity="1"><g transform="translate(146.524858, 227.80708)"><g><path d="M 0.78125 0 L 0.78125 -7.171875 L 2.484375 -7.171875 C 3.316406 -7.171875 3.960938 -6.910156 4.421875 -6.390625 C 4.890625 -5.867188 5.125 -5.128906 5.125 -4.171875 L 5.125 -2.984375 C 5.125 -2.023438 4.890625 -1.285156 4.421875 -0.765625 C 3.953125 -0.253906 3.269531 0 2.375 0 Z M 1.671875 -6.390625 L 1.671875 -0.78125 L 2.40625 -0.78125 C 3.03125 -0.78125 3.488281 -0.957031 3.78125 -1.3125 C 4.082031 -1.675781 4.234375 -2.21875 4.234375 -2.9375 L 4.234375 -4.203125 C 4.234375 -4.960938 4.085938 -5.515625 3.796875 -5.859375 C 3.503906 -6.210938 3.066406 -6.390625 2.484375 -6.390625 Z M 1.671875 -6.390625 "/></g></g></g><g fill="#5b5b5b" fill-opacity="1"><g transform="translate(154.525477, 227.80708)"><g><path d="M 4.21875 -3.3125 L 1.671875 -3.3125 L 1.671875 -0.78125 L 4.640625 -0.78125 L 4.640625 0 L 0.78125 0 L 0.78125 -7.171875 L 4.578125 -7.171875 L 4.578125 -6.390625 L 1.671875 -6.390625 L 1.671875 -4.09375 L 4.21875 -4.09375 Z M 4.21875 -3.3125 "/></g></g></g><g fill="#5b5b5b" fill-opacity="1"><g transform="translate(161.777241, 227.80708)"><g><path d="M 2.828125 -1.390625 L 4.46875 -7.171875 L 5.453125 -7.171875 L 3.21875 0 L 2.4375 0 L 0.203125 -7.171875 L 1.1875 -7.171875 Z M 2.828125 -1.390625 "/></g></g></g><g fill="#5b5b5b" fill-opacity="1"><g transform="translate(169.669474, 227.80708)"><g><path d="M 4.21875 -3.3125 L 1.671875 -3.3125 L 1.671875 -0.78125 L 4.640625 -0.78125 L 4.640625 0 L 0.78125 0 L 0.78125 -7.171875 L 4.578125 -7.171875 L 4.578125 -6.390625 L 1.671875 -6.390625 L 1.671875 -4.09375 L 4.21875 -4.09375 Z M 4.21875 -3.3125 "/></g></g></g><g fill="#5b5b5b" fill-opacity="1"><g transform="translate(176.921237, 227.80708)"><g><path d="M 1.6875 -0.78125 L 4.5 -0.78125 L 4.5 0 L 0.78125 0 L 0.78125 -7.171875 L 1.6875 -7.171875 Z M 1.6875 -0.78125 "/></g></g></g><g fill="#5b5b5b" fill-opacity="1"><g transform="translate(183.956226, 227.80708)"><g><path d="M 5.4375 -2.953125 C 5.4375 -1.972656 5.226562 -1.21875 4.8125 -0.6875 C 4.394531 -0.164062 3.800781 0.09375 3.03125 0.09375 C 2.289062 0.09375 1.707031 -0.160156 1.28125 -0.671875 C 0.851562 -1.179688 0.628906 -1.910156 0.609375 -2.859375 L 0.609375 -4.203125 C 0.609375 -5.160156 0.820312 -5.910156 1.25 -6.453125 C 1.675781 -7.003906 2.269531 -7.28125 3.03125 -7.28125 C 3.78125 -7.28125 4.363281 -7.019531 4.78125 -6.5 C 5.207031 -5.976562 5.425781 -5.234375 5.4375 -4.265625 Z M 4.546875 -4.21875 C 4.546875 -4.976562 4.421875 -5.539062 4.171875 -5.90625 C 3.921875 -6.28125 3.539062 -6.46875 3.03125 -6.46875 C 2.53125 -6.46875 2.148438 -6.28125 1.890625 -5.90625 C 1.640625 -5.53125 1.515625 -4.976562 1.515625 -4.25 L 1.515625 -2.953125 C 1.515625 -2.222656 1.640625 -1.664062 1.890625 -1.28125 C 2.148438 -0.894531 2.53125 -0.703125 3.03125 -0.703125 C 3.539062 -0.703125 3.914062 -0.878906 4.15625 -1.234375 C 4.40625 -1.585938 4.535156 -2.132812 4.546875 -2.875 Z M 4.546875 -4.21875 "/></g></g></g><g fill="#5b5b5b" fill-opacity="1"><g transform="translate(192.257366, 227.80708)"><g><path d="M 1.671875 -2.8125 L 1.671875 0 L 0.78125 0 L 0.78125 -7.171875 L 3.0625 -7.171875 C 3.726562 -7.171875 4.25 -6.972656 4.625 -6.578125 C 5.007812 -6.179688 5.203125 -5.648438 5.203125 -4.984375 C 5.203125 -4.296875 5.019531 -3.765625 4.65625 -3.390625 C 4.289062 -3.015625 3.78125 -2.820312 3.125 -2.8125 Z M 1.671875 -3.578125 L 3.0625 -3.578125 C 3.457031 -3.578125 3.757812 -3.695312 3.96875 -3.9375 C 4.1875 -4.175781 4.296875 -4.519531 4.296875 -4.96875 C 4.296875 -5.40625 4.1875 -5.75 3.96875 -6 C 3.75 -6.257812 3.445312 -6.390625 3.0625 -6.390625 L 1.671875 -6.390625 Z M 1.671875 -3.578125 "/></g></g></g><g fill="#5b5b5b" fill-opacity="1"><g transform="translate(200.090477, 227.80708)"><g><path d="M 4.21875 -3.3125 L 1.671875 -3.3125 L 1.671875 -0.78125 L 4.640625 -0.78125 L 4.640625 0 L 0.78125 0 L 0.78125 -7.171875 L 4.578125 -7.171875 L 4.578125 -6.390625 L 1.671875 -6.390625 L 1.671875 -4.09375 L 4.21875 -4.09375 Z M 4.21875 -3.3125 "/></g></g></g><g fill="#5b5b5b" fill-opacity="1"><g transform="translate(207.342243, 227.80708)"><g><path d="M 2.9375 -2.90625 L 1.6875 -2.90625 L 1.6875 0 L 0.78125 0 L 0.78125 -7.171875 L 2.78125 -7.171875 C 3.488281 -7.171875 4.019531 -6.988281 4.375 -6.625 C 4.738281 -6.257812 4.921875 -5.722656 4.921875 -5.015625 C 4.921875 -4.578125 4.820312 -4.191406 4.625 -3.859375 C 4.4375 -3.523438 4.160156 -3.273438 3.796875 -3.109375 L 5.1875 -0.0625 L 5.1875 0 L 4.21875 0 Z M 1.6875 -3.671875 L 2.78125 -3.671875 C 3.15625 -3.671875 3.453125 -3.789062 3.671875 -4.03125 C 3.898438 -4.28125 4.015625 -4.609375 4.015625 -5.015625 C 4.015625 -5.929688 3.597656 -6.390625 2.765625 -6.390625 L 1.6875 -6.390625 Z M 1.6875 -3.671875 "/></g></g></g><g fill="#5b5b5b" fill-opacity="1"><g transform="translate(214.938876, 227.80708)"><g><path d="M 3.90625 -1.8125 C 3.90625 -2.164062 3.804688 -2.4375 3.609375 -2.625 C 3.421875 -2.820312 3.070312 -3.007812 2.5625 -3.1875 C 2.0625 -3.375 1.675781 -3.566406 1.40625 -3.765625 C 1.132812 -3.960938 0.929688 -4.1875 0.796875 -4.4375 C 0.671875 -4.695312 0.609375 -4.988281 0.609375 -5.3125 C 0.609375 -5.882812 0.796875 -6.351562 1.171875 -6.71875 C 1.554688 -7.09375 2.054688 -7.28125 2.671875 -7.28125 C 3.085938 -7.28125 3.457031 -7.179688 3.78125 -6.984375 C 4.113281 -6.796875 4.367188 -6.535156 4.546875 -6.203125 C 4.722656 -5.867188 4.8125 -5.5 4.8125 -5.09375 L 3.90625 -5.09375 C 3.90625 -5.539062 3.796875 -5.882812 3.578125 -6.125 C 3.367188 -6.375 3.066406 -6.5 2.671875 -6.5 C 2.304688 -6.5 2.019531 -6.394531 1.8125 -6.1875 C 1.613281 -5.988281 1.515625 -5.703125 1.515625 -5.328125 C 1.515625 -5.023438 1.625 -4.769531 1.84375 -4.5625 C 2.0625 -4.363281 2.394531 -4.1875 2.84375 -4.03125 C 3.550781 -3.789062 4.054688 -3.5 4.359375 -3.15625 C 4.660156 -2.820312 4.8125 -2.378906 4.8125 -1.828125 C 4.8125 -1.242188 4.625 -0.773438 4.25 -0.421875 C 3.875 -0.078125 3.359375 0.09375 2.703125 0.09375 C 2.285156 0.09375 1.898438 0.00390625 1.546875 -0.171875 C 1.203125 -0.359375 0.925781 -0.613281 0.71875 -0.9375 C 0.519531 -1.269531 0.421875 -1.648438 0.421875 -2.078125 L 1.328125 -2.078125 C 1.328125 -1.640625 1.445312 -1.296875 1.6875 -1.046875 C 1.9375 -0.796875 2.273438 -0.671875 2.703125 -0.671875 C 3.109375 -0.671875 3.410156 -0.769531 3.609375 -0.96875 C 3.804688 -1.175781 3.90625 -1.457031 3.90625 -1.8125 Z M 3.90625 -1.8125 "/></g></g></g><g fill="#5b5b5b" fill-opacity="1"><g transform="translate(222.407416, 227.80708)"><g/></g></g><g fill="#5b5b5b" fill-opacity="1"><g transform="translate(226.95936, 227.80708)"><g><path d="M 1.6875 -0.78125 L 4.5 -0.78125 L 4.5 0 L 0.78125 0 L 0.78125 -7.171875 L 1.6875 -7.171875 Z M 1.6875 -0.78125 "/></g></g></g><g fill="#5b5b5b" fill-opacity="1"><g transform="translate(233.994352, 227.80708)"><g><path d="M 4.96875 -6.390625 L 3.078125 -6.390625 L 3.078125 0 L 2.171875 0 L 2.171875 -6.390625 L 0.296875 -6.390625 L 0.296875 -7.171875 L 4.96875 -7.171875 Z M 4.96875 -6.390625 "/></g></g></g><g fill="#5b5b5b" fill-opacity="1"><g transform="translate(241.487519, 227.80708)"><g><path d="M 0.78125 0 L 0.78125 -7.171875 L 2.484375 -7.171875 C 3.316406 -7.171875 3.960938 -6.910156 4.421875 -6.390625 C 4.890625 -5.867188 5.125 -5.128906 5.125 -4.171875 L 5.125 -2.984375 C 5.125 -2.023438 4.890625 -1.285156 4.421875 -0.765625 C 3.953125 -0.253906 3.269531 0 2.375 0 Z M 1.671875 -6.390625 L 1.671875 -0.78125 L 2.40625 -0.78125 C 3.03125 -0.78125 3.488281 -0.957031 3.78125 -1.3125 C 4.082031 -1.675781 4.234375 -2.21875 4.234375 -2.9375 L 4.234375 -4.203125 C 4.234375 -4.960938 4.085938 -5.515625 3.796875 -5.859375 C 3.503906 -6.210938 3.066406 -6.390625 2.484375 -6.390625 Z M 1.671875 -6.390625 "/></g></g></g><g fill="#5b5b5b" fill-opacity="1"><g transform="translate(249.488135, 227.80708)"><g><path d="M 0.703125 -0.484375 C 0.703125 -0.640625 0.75 -0.769531 0.84375 -0.875 C 0.9375 -0.976562 1.078125 -1.03125 1.265625 -1.03125 C 1.453125 -1.03125 1.59375 -0.976562 1.6875 -0.875 C 1.789062 -0.769531 1.84375 -0.640625 1.84375 -0.484375 C 1.84375 -0.328125 1.789062 -0.195312 1.6875 -0.09375 C 1.59375 0 1.453125 0.046875 1.265625 0.046875 C 1.078125 0.046875 0.9375 0 0.84375 -0.09375 C 0.75 -0.195312 0.703125 -0.328125 0.703125 -0.484375 Z M 0.703125 -0.484375 "/></g></g></g></svg>